<mxfile host="app.diagrams.net" modified="2021-12-07T14:22:16.773Z" agent="5.0 (Macintosh; Intel Mac OS X 10_15_7) AppleWebKit/537.36 (KHTML, like Gecko) Chrome/96.0.4664.55 Safari/537.36" etag="5UzZv_oupQ5I594Hl_cz" version="15.8.6" type="github">
  <diagram id="zYkpqrjhrI2a45teZ2bl" name="Page-1">
    <mxGraphModel dx="946" dy="603" grid="1" gridSize="10" guides="1" tooltips="1" connect="1" arrows="1" fold="1" page="1" pageScale="1" pageWidth="827" pageHeight="1169" math="0" shadow="0">
      <root>
        <mxCell id="0" />
        <mxCell id="1" parent="0" />
        <mxCell id="3jl18JNsWPMRGAtueJ_B-4" value="" style="rounded=1;whiteSpace=wrap;html=1;fillColor=none;dashed=1;" parent="1" vertex="1">
          <mxGeometry y="263" width="840" height="727" as="geometry" />
        </mxCell>
        <mxCell id="3jl18JNsWPMRGAtueJ_B-7" value="work pool (:9000)" style="rounded=1;whiteSpace=wrap;html=1;verticalAlign=bottom;fillColor=#dae8fc;strokeColor=#6c8ebf;" parent="1" vertex="1">
          <mxGeometry x="140" y="413" width="250" height="217" as="geometry" />
        </mxCell>
        <mxCell id="3jl18JNsWPMRGAtueJ_B-1" value="nginx&lt;br&gt;(web服务)" style="rounded=1;whiteSpace=wrap;html=1;" parent="1" vertex="1">
          <mxGeometry x="345" y="143" width="120" height="90" as="geometry" />
        </mxCell>
        <mxCell id="3jl18JNsWPMRGAtueJ_B-2" value="nginx&lt;br&gt;(router LB)" style="rounded=1;whiteSpace=wrap;html=1;" parent="1" vertex="1">
          <mxGeometry x="345" y="24" width="120" height="60" as="geometry" />
        </mxCell>
        <mxCell id="3jl18JNsWPMRGAtueJ_B-3" value="http_fastcgi_module" style="rounded=1;whiteSpace=wrap;html=1;dashed=1;fillColor=#f8cecc;dashPattern=1 4;strokeColor=#b85450;" parent="1" vertex="1">
          <mxGeometry x="349.82" y="221" width="110" height="30" as="geometry" />
        </mxCell>
        <mxCell id="3jl18JNsWPMRGAtueJ_B-5" value="php-fpm&lt;br&gt;(应用服务)" style="text;html=1;align=center;verticalAlign=middle;resizable=0;points=[];autosize=1;strokeColor=none;fillColor=none;" parent="1" vertex="1">
          <mxGeometry x="710" y="263" width="70" height="30" as="geometry" />
        </mxCell>
        <mxCell id="3jl18JNsWPMRGAtueJ_B-6" value="master&lt;br&gt;process" style="rounded=1;whiteSpace=wrap;html=1;fillColor=#d5e8d4;strokeColor=#82b366;" parent="1" vertex="1">
          <mxGeometry x="354" y="294" width="120" height="60" as="geometry" />
        </mxCell>
        <mxCell id="3jl18JNsWPMRGAtueJ_B-8" value="" style="shape=image;verticalLabelPosition=bottom;labelBackgroundColor=#ffffff;verticalAlign=top;aspect=fixed;imageAspect=0;image=https://img5.fanhaobai.com/2017/10/internal-php-fpm/9d9d0bb5-d970-4536-aa55-0f885648e551.png;imageBackground=none;" parent="1" vertex="1">
          <mxGeometry x="239" y="1020" width="415.13" height="380" as="geometry" />
        </mxCell>
        <mxCell id="3jl18JNsWPMRGAtueJ_B-10" value="fpm_scoreboard_proc_s&lt;br&gt;(mmap)" style="rounded=1;whiteSpace=wrap;html=1;verticalAlign=top;fillColor=#f5f5f5;fontColor=#333333;strokeColor=#666666;rotation=0;direction=south;horizontal=0;align=center;" parent="1" vertex="1">
          <mxGeometry x="193" y="445" width="36" height="133" as="geometry" />
        </mxCell>
        <mxCell id="3jl18JNsWPMRGAtueJ_B-12" value="worker process" style="rounded=1;whiteSpace=wrap;html=1;fillColor=none;verticalAlign=bottom;" parent="1" vertex="1">
          <mxGeometry x="166.82" y="438" width="50" height="170" as="geometry" />
        </mxCell>
        <mxCell id="3jl18JNsWPMRGAtueJ_B-13" value="fpm_scoreboard_s&lt;br style=&quot;font-size: 12px&quot;&gt;(mmap/spinlock)" style="rounded=1;whiteSpace=wrap;html=1;fillColor=#f5f5f5;verticalAlign=top;align=center;horizontal=1;fontSize=12;strokeColor=#666666;fontColor=#333333;" parent="1" vertex="1">
          <mxGeometry x="254" y="398" width="106" height="35" as="geometry" />
        </mxCell>
        <mxCell id="3jl18JNsWPMRGAtueJ_B-16" value="fpm_scoreboard_proc_s&lt;br&gt;(mmap)" style="rounded=1;whiteSpace=wrap;html=1;verticalAlign=top;fillColor=#f5f5f5;fontColor=#333333;strokeColor=#666666;rotation=0;direction=south;horizontal=0;dashed=1;" parent="1" vertex="1">
          <mxGeometry x="330" y="443" width="36" height="133" as="geometry" />
        </mxCell>
        <mxCell id="3jl18JNsWPMRGAtueJ_B-17" value="worker process" style="rounded=1;whiteSpace=wrap;html=1;fillColor=none;verticalAlign=bottom;dashed=1;" parent="1" vertex="1">
          <mxGeometry x="301.82" y="437" width="50" height="170" as="geometry" />
        </mxCell>
        <mxCell id="3jl18JNsWPMRGAtueJ_B-20" value="....." style="text;html=1;align=center;verticalAlign=middle;resizable=0;points=[];autosize=1;strokeColor=none;fillColor=none;fontSize=16;" parent="1" vertex="1">
          <mxGeometry x="240" y="553" width="40" height="20" as="geometry" />
        </mxCell>
        <mxCell id="3jl18JNsWPMRGAtueJ_B-21" value="work pool (:9001)" style="rounded=1;whiteSpace=wrap;html=1;verticalAlign=bottom;fillColor=#dae8fc;strokeColor=#6c8ebf;" parent="1" vertex="1">
          <mxGeometry x="476" y="412" width="220" height="218" as="geometry" />
        </mxCell>
        <mxCell id="3jl18JNsWPMRGAtueJ_B-22" value="fpm_scoreboard_proc_s&lt;br&gt;(mmap)" style="rounded=1;whiteSpace=wrap;html=1;verticalAlign=top;fillColor=#f5f5f5;fontColor=#333333;strokeColor=#666666;rotation=0;direction=south;horizontal=0;dashed=1;" parent="1" vertex="1">
          <mxGeometry x="485" y="437" width="36" height="133" as="geometry" />
        </mxCell>
        <mxCell id="3jl18JNsWPMRGAtueJ_B-23" value="worker process" style="rounded=1;whiteSpace=wrap;html=1;fillColor=none;verticalAlign=bottom;dashed=1;" parent="1" vertex="1">
          <mxGeometry x="506.82" y="434" width="50" height="169" as="geometry" />
        </mxCell>
        <mxCell id="3jl18JNsWPMRGAtueJ_B-24" value="fpm_scoreboard_s&lt;br style=&quot;font-size: 12px&quot;&gt;(mmap/spinlock)" style="rounded=1;whiteSpace=wrap;html=1;fillColor=#f5f5f5;verticalAlign=top;align=center;horizontal=1;fontSize=12;strokeColor=#666666;fontColor=#333333;" parent="1" vertex="1">
          <mxGeometry x="483.82" y="393" width="106" height="35" as="geometry" />
        </mxCell>
        <mxCell id="3jl18JNsWPMRGAtueJ_B-25" value="fpm_scoreboard_proc_s&lt;br&gt;(mmap)" style="rounded=1;whiteSpace=wrap;html=1;verticalAlign=top;fillColor=#f5f5f5;fontColor=#333333;strokeColor=#666666;rotation=0;direction=south;horizontal=0;" parent="1" vertex="1">
          <mxGeometry x="615" y="446" width="36" height="133" as="geometry" />
        </mxCell>
        <mxCell id="3jl18JNsWPMRGAtueJ_B-26" value="worker process" style="rounded=1;whiteSpace=wrap;html=1;fillColor=none;verticalAlign=bottom;" parent="1" vertex="1">
          <mxGeometry x="636.8199999999999" y="438" width="50" height="170" as="geometry" />
        </mxCell>
        <mxCell id="3jl18JNsWPMRGAtueJ_B-27" value="....." style="text;html=1;align=center;verticalAlign=middle;resizable=0;points=[];autosize=1;strokeColor=none;fillColor=none;fontSize=16;" parent="1" vertex="1">
          <mxGeometry x="566" y="552" width="40" height="20" as="geometry" />
        </mxCell>
        <mxCell id="3jl18JNsWPMRGAtueJ_B-28" value="....." style="text;html=1;align=center;verticalAlign=middle;resizable=0;points=[];autosize=1;strokeColor=none;fillColor=none;fontSize=16;fontStyle=1;fontColor=#7EA6E0;" parent="1" vertex="1">
          <mxGeometry x="408.5" y="518" width="40" height="20" as="geometry" />
        </mxCell>
        <mxCell id="3jl18JNsWPMRGAtueJ_B-35" value="" style="curved=1;endArrow=classic;html=1;rounded=0;fontSize=12;strokeWidth=1;opacity=50;entryX=0.25;entryY=1;entryDx=0;entryDy=0;exitX=0;exitY=0;exitDx=0;exitDy=0;startArrow=classicThin;startFill=1;" parent="1" source="3jl18JNsWPMRGAtueJ_B-16" target="3jl18JNsWPMRGAtueJ_B-6" edge="1">
          <mxGeometry width="50" height="50" relative="1" as="geometry">
            <mxPoint x="390" y="604" as="sourcePoint" />
            <mxPoint x="440" y="554" as="targetPoint" />
            <Array as="points">
              <mxPoint x="390" y="414" />
            </Array>
          </mxGeometry>
        </mxCell>
        <mxCell id="UesM6g5A7Yxn22nxan8f-11" value="shm" style="edgeLabel;html=1;align=center;verticalAlign=middle;resizable=0;points=[];fontSize=12;fontColor=#5A687D;" parent="3jl18JNsWPMRGAtueJ_B-35" vertex="1" connectable="0">
          <mxGeometry x="0.0028" y="-2" relative="1" as="geometry">
            <mxPoint as="offset" />
          </mxGeometry>
        </mxCell>
        <mxCell id="3jl18JNsWPMRGAtueJ_B-36" value="" style="curved=1;endArrow=classic;html=1;rounded=0;fontSize=12;strokeWidth=1;opacity=50;entryX=0.75;entryY=1;entryDx=0;entryDy=0;startArrow=classicThin;startFill=1;exitX=0;exitY=1;exitDx=0;exitDy=0;" parent="1" source="3jl18JNsWPMRGAtueJ_B-22" target="3jl18JNsWPMRGAtueJ_B-6" edge="1">
          <mxGeometry width="50" height="50" relative="1" as="geometry">
            <mxPoint x="480" y="434" as="sourcePoint" />
            <mxPoint x="372.03999999999996" y="365.02" as="targetPoint" />
            <Array as="points">
              <mxPoint x="450" y="384" />
            </Array>
          </mxGeometry>
        </mxCell>
        <mxCell id="3jl18JNsWPMRGAtueJ_B-38" value="" style="endArrow=classic;startArrow=classic;html=1;rounded=0;fontSize=12;strokeWidth=1;opacity=50;exitX=0.25;exitY=0;exitDx=0;exitDy=0;entryX=1;entryY=1;entryDx=0;entryDy=0;" parent="1" source="3jl18JNsWPMRGAtueJ_B-24" target="3jl18JNsWPMRGAtueJ_B-6" edge="1">
          <mxGeometry width="50" height="50" relative="1" as="geometry">
            <mxPoint x="390" y="334" as="sourcePoint" />
            <mxPoint x="440" y="284" as="targetPoint" />
          </mxGeometry>
        </mxCell>
        <mxCell id="3jl18JNsWPMRGAtueJ_B-39" value="" style="endArrow=classic;startArrow=classic;html=1;rounded=0;fontSize=12;strokeWidth=1;opacity=50;entryX=0.058;entryY=1;entryDx=0;entryDy=0;entryPerimeter=0;" parent="1" source="3jl18JNsWPMRGAtueJ_B-13" target="3jl18JNsWPMRGAtueJ_B-6" edge="1">
          <mxGeometry width="50" height="50" relative="1" as="geometry">
            <mxPoint x="520.3199999999999" y="403" as="sourcePoint" />
            <mxPoint x="484" y="364" as="targetPoint" />
          </mxGeometry>
        </mxCell>
        <mxCell id="UesM6g5A7Yxn22nxan8f-1" value="&lt;b&gt;php-fmp应用服务启动时&lt;/b&gt;&lt;br&gt;master process&lt;br&gt;加载配置初始化参数&lt;br&gt;初始化listen fds&lt;br&gt;初始化管道(signal/stdout/stderr)&lt;br&gt;根据端口初始对应工作池资源&lt;br&gt;初始化工作池共享内存(&lt;span style=&quot;color: rgb(51 , 51 , 51) ; background-color: rgb(245 , 245 , 245)&quot;&gt;fpm_scoreboard_s&lt;/span&gt;&lt;span style=&quot;color: rgb(51 , 51 , 51) ; background-color: rgb(245 , 245 , 245)&quot;&gt;(mmap/spinlock))&lt;br&gt;&lt;/span&gt;初始化工作进程共享内存(&lt;span style=&quot;color: rgb(51 , 51 , 51) ; background-color: rgb(245 , 245 , 245)&quot;&gt;fpm_scoreboard_proc_s&lt;/span&gt;&lt;span style=&quot;color: rgb(51 , 51 , 51) ; background-color: rgb(245 , 245 , 245)&quot;&gt;(mmap/spinlock)&lt;/span&gt;)&lt;br&gt;每个池 fork 工作子进程&lt;br&gt;根据配置初始化子进程资源(fpm_child_init)&lt;br&gt;子进程接受请求连接(循环fcgi_accept_request）" style="text;html=1;align=center;verticalAlign=middle;resizable=0;points=[];autosize=1;strokeColor=none;fillColor=none;fontSize=12;" parent="1" vertex="1">
          <mxGeometry x="8" y="661" width="370" height="160" as="geometry" />
        </mxCell>
        <mxCell id="UesM6g5A7Yxn22nxan8f-5" value="fcgi_accept_request" style="ellipse;shape=umlControl;whiteSpace=wrap;html=1;fontSize=12;fillColor=#f8cecc;opacity=50;strokeColor=#b85450;fontColor=#EA6B66;align=right;" parent="1" vertex="1">
          <mxGeometry x="177.32" y="412" width="29" height="32" as="geometry" />
        </mxCell>
        <mxCell id="UesM6g5A7Yxn22nxan8f-7" value="" style="ellipse;shape=umlControl;whiteSpace=wrap;html=1;fontSize=12;fillColor=#f8cecc;opacity=50;strokeColor=#b85450;dashed=1;" parent="1" vertex="1">
          <mxGeometry x="280" y="439" width="29" height="32" as="geometry" />
        </mxCell>
        <mxCell id="UesM6g5A7Yxn22nxan8f-8" value="" style="ellipse;shape=umlControl;whiteSpace=wrap;html=1;fontSize=12;fillColor=#f8cecc;opacity=50;strokeColor=#b85450;dashed=1;" parent="1" vertex="1">
          <mxGeometry x="537" y="437" width="29" height="32" as="geometry" />
        </mxCell>
        <mxCell id="UesM6g5A7Yxn22nxan8f-9" value="&lt;span style=&quot;color: rgb(234 , 107 , 102)&quot;&gt;fcgi_accept_request&lt;/span&gt;" style="ellipse;shape=umlControl;whiteSpace=wrap;html=1;fontSize=12;fillColor=#f8cecc;opacity=50;strokeColor=#b85450;align=left;" parent="1" vertex="1">
          <mxGeometry x="650" y="416" width="29" height="32" as="geometry" />
        </mxCell>
        <mxCell id="UesM6g5A7Yxn22nxan8f-12" value="" style="curved=1;endArrow=classic;html=1;rounded=0;fontSize=12;fontColor=#5A687D;strokeWidth=1;opacity=50;entryX=1;entryY=0.75;entryDx=0;entryDy=0;startArrow=classicThin;startFill=1;strokeColor=#67AB9F;" parent="1" target="3jl18JNsWPMRGAtueJ_B-6" edge="1">
          <mxGeometry width="50" height="50" relative="1" as="geometry">
            <mxPoint x="640" y="438" as="sourcePoint" />
            <mxPoint x="460" y="364" as="targetPoint" />
            <Array as="points">
              <mxPoint x="624" y="374" />
            </Array>
          </mxGeometry>
        </mxCell>
        <mxCell id="UesM6g5A7Yxn22nxan8f-15" value="&lt;span style=&quot;color: rgba(0 , 0 , 0 , 0) ; font-family: monospace ; font-size: 0px ; background-color: rgb(248 , 249 , 250)&quot;&gt;%3CmxGraphModel%3E%3Croot%3E%3CmxCell%20id%3D%220%22%2F%3E%3CmxCell%20id%3D%221%22%20parent%3D%220%22%2F%3E%3CmxCell%20id%3D%222%22%20value%3D%22%22%20style%3D%22curved%3D1%3BendArrow%3Dclassic%3Bhtml%3D1%3Brounded%3D0%3BfontSize%3D12%3BfontColor%3D%235A687D%3BstrokeWidth%3D1%3Bopacity%3D50%3BentryX%3D1%3BentryY%3D0.75%3BentryDx%3D0%3BentryDy%3D0%3BexitX%3D0%3BexitY%3D0.75%3BexitDx%3D0%3BexitDy%3D0%3BstartArrow%3DclassicThin%3BstartFill%3D1%3B%22%20edge%3D%221%22%20parent%3D%221%22%3E%3CmxGeometry%20width%3D%2250%22%20height%3D%2250%22%20relative%3D%221%22%20as%3D%22geometry%22%3E%3CmxPoint%20x%3D%22624%22%20y%3D%22502%22%20as%3D%22sourcePoint%22%2F%3E%3CmxPoint%20x%3D%22474%22%20y%3D%22395%22%20as%3D%22targetPoint%22%2F%3E%3CArray%20as%3D%22points%22%3E%3CmxPoint%20x%3D%22624%22%20y%3D%22430%22%2F%3E%3C%2FArray%3E%3C%2FmxGeometry%3E%3C%2FmxCell%3E%3C%2Froot%3E%3C%2FmxGraphModel%3&lt;/span&gt;" style="edgeLabel;html=1;align=center;verticalAlign=middle;resizable=0;points=[];fontSize=12;fontColor=#5A687D;" parent="UesM6g5A7Yxn22nxan8f-12" vertex="1" connectable="0">
          <mxGeometry x="0.198" y="6" relative="1" as="geometry">
            <mxPoint y="-1" as="offset" />
          </mxGeometry>
        </mxCell>
        <mxCell id="UesM6g5A7Yxn22nxan8f-16" value="&lt;font color=&quot;#67ab9f&quot;&gt;pipe(signal/stdout/stderr)&lt;/font&gt;" style="edgeLabel;html=1;align=center;verticalAlign=middle;resizable=0;points=[];fontSize=12;fontColor=#5A687D;" parent="UesM6g5A7Yxn22nxan8f-12" vertex="1" connectable="0">
          <mxGeometry x="0.194" y="7" relative="1" as="geometry">
            <mxPoint as="offset" />
          </mxGeometry>
        </mxCell>
        <mxCell id="UesM6g5A7Yxn22nxan8f-14" value="" style="curved=1;endArrow=classic;html=1;rounded=0;fontSize=12;fontColor=#5A687D;strokeWidth=1;opacity=50;entryX=0.008;entryY=0.65;entryDx=0;entryDy=0;startArrow=classicThin;startFill=1;entryPerimeter=0;strokeColor=#67AB9F;exitX=1;exitY=0;exitDx=0;exitDy=0;" parent="1" source="3jl18JNsWPMRGAtueJ_B-12" edge="1">
          <mxGeometry width="50" height="50" relative="1" as="geometry">
            <mxPoint x="220" y="434" as="sourcePoint" />
            <mxPoint x="355.96000000000004" y="335" as="targetPoint" />
            <Array as="points">
              <mxPoint x="221" y="356" />
            </Array>
          </mxGeometry>
        </mxCell>
        <mxCell id="UesM6g5A7Yxn22nxan8f-17" value="&lt;font color=&quot;#67ab9f&quot;&gt;pipe(signal/stdout/stderr)&lt;/font&gt;" style="edgeLabel;html=1;align=center;verticalAlign=middle;resizable=0;points=[];fontSize=12;fontColor=#5A687D;" parent="UesM6g5A7Yxn22nxan8f-14" vertex="1" connectable="0">
          <mxGeometry x="0.1163" y="-11" relative="1" as="geometry">
            <mxPoint as="offset" />
          </mxGeometry>
        </mxCell>
        <mxCell id="UesM6g5A7Yxn22nxan8f-18" value="event" style="ellipse;shape=umlControl;whiteSpace=wrap;html=1;fontSize=12;fillColor=#e1d5e7;opacity=50;strokeColor=#9673a6;" parent="1" vertex="1">
          <mxGeometry x="445" y="317" width="29" height="32" as="geometry" />
        </mxCell>
        <mxCell id="UesM6g5A7Yxn22nxan8f-19" value="" style="endArrow=none;startArrow=classic;html=1;rounded=0;fontSize=12;fontColor=#67AB9F;strokeColor=#EA6B66;strokeWidth=1;opacity=50;jumpStyle=sharp;jumpSize=5;edgeStyle=orthogonalEdgeStyle;curved=1;dashed=1;dashPattern=1 1;exitX=0.092;exitY=0.344;exitDx=0;exitDy=0;exitPerimeter=0;endFill=0;" parent="1" source="UesM6g5A7Yxn22nxan8f-5" edge="1">
          <mxGeometry width="50" height="50" relative="1" as="geometry">
            <mxPoint x="188" y="414" as="sourcePoint" />
            <mxPoint x="350" y="244" as="targetPoint" />
            <Array as="points">
              <mxPoint x="180" y="244" />
              <mxPoint x="350" y="244" />
            </Array>
          </mxGeometry>
        </mxCell>
        <mxCell id="UesM6g5A7Yxn22nxan8f-33" value="&lt;span style=&quot;color: rgb(241 , 156 , 153)&quot;&gt;fastCGI&lt;/span&gt;&lt;br style=&quot;color: rgb(241 , 156 , 153)&quot;&gt;&lt;span style=&quot;color: rgb(241 , 156 , 153)&quot;&gt;stdin&lt;/span&gt;" style="edgeLabel;html=1;align=center;verticalAlign=middle;resizable=0;points=[];fontSize=12;fontColor=#7EA6E0;" parent="UesM6g5A7Yxn22nxan8f-19" vertex="1" connectable="0">
          <mxGeometry x="-0.3237" y="-24" relative="1" as="geometry">
            <mxPoint as="offset" />
          </mxGeometry>
        </mxCell>
        <mxCell id="UesM6g5A7Yxn22nxan8f-21" value="" style="endArrow=none;startArrow=classic;html=1;rounded=0;fontSize=12;fontColor=#67AB9F;strokeColor=#EA6B66;strokeWidth=1;opacity=50;entryX=1;entryY=0.75;entryDx=0;entryDy=0;jumpStyle=sharp;jumpSize=5;edgeStyle=orthogonalEdgeStyle;curved=1;dashed=1;dashPattern=1 1;exitX=0.138;exitY=0.25;exitDx=0;exitDy=0;exitPerimeter=0;endFill=0;" parent="1" source="UesM6g5A7Yxn22nxan8f-9" target="3jl18JNsWPMRGAtueJ_B-3" edge="1">
          <mxGeometry width="50" height="50" relative="1" as="geometry">
            <mxPoint x="189.98799999999983" y="433.00800000000004" as="sourcePoint" />
            <mxPoint x="359.81999999999994" y="261" as="targetPoint" />
            <Array as="points">
              <mxPoint x="655" y="244" />
            </Array>
          </mxGeometry>
        </mxCell>
        <mxCell id="UesM6g5A7Yxn22nxan8f-22" value="&lt;font color=&quot;#f19c99&quot;&gt;fastCGI&lt;br&gt;stdin&lt;br&gt;&lt;/font&gt;" style="edgeLabel;html=1;align=center;verticalAlign=middle;resizable=0;points=[];fontSize=12;fontColor=#67AB9F;" parent="UesM6g5A7Yxn22nxan8f-21" vertex="1" connectable="0">
          <mxGeometry x="0.2153" y="44" relative="1" as="geometry">
            <mxPoint x="-1" y="1" as="offset" />
          </mxGeometry>
        </mxCell>
        <mxCell id="UesM6g5A7Yxn22nxan8f-24" value="" style="curved=1;endArrow=classic;html=1;rounded=0;dashed=1;dashPattern=1 1;fontSize=12;fontColor=#7EA6E0;strokeColor=#7EA6E0;strokeWidth=1;opacity=50;jumpStyle=sharp;jumpSize=5;entryX=1;entryY=0.25;entryDx=0;entryDy=0;" parent="1" target="3jl18JNsWPMRGAtueJ_B-3" edge="1">
          <mxGeometry width="50" height="50" relative="1" as="geometry">
            <mxPoint x="686.8199999999999" y="554" as="sourcePoint" />
            <mxPoint x="736.8199999999999" y="504" as="targetPoint" />
            <Array as="points">
              <mxPoint x="736.8199999999999" y="554" />
              <mxPoint x="700" y="344" />
              <mxPoint x="620" y="236" />
            </Array>
          </mxGeometry>
        </mxCell>
        <mxCell id="UesM6g5A7Yxn22nxan8f-25" value="fastCGI&lt;br&gt;stdout" style="edgeLabel;html=1;align=center;verticalAlign=middle;resizable=0;points=[];fontSize=12;fontColor=#7EA6E0;" parent="UesM6g5A7Yxn22nxan8f-24" vertex="1" connectable="0">
          <mxGeometry x="0.1121" y="-2" relative="1" as="geometry">
            <mxPoint as="offset" />
          </mxGeometry>
        </mxCell>
        <mxCell id="UesM6g5A7Yxn22nxan8f-26" value="" style="curved=1;endArrow=classic;html=1;rounded=0;dashed=1;dashPattern=1 1;fontSize=12;fontColor=#7EA6E0;strokeColor=#7EA6E0;strokeWidth=1;opacity=50;jumpStyle=sharp;jumpSize=5;exitX=-0.056;exitY=0.694;exitDx=0;exitDy=0;exitPerimeter=0;entryX=0;entryY=0.25;entryDx=0;entryDy=0;" parent="1" source="3jl18JNsWPMRGAtueJ_B-12" target="3jl18JNsWPMRGAtueJ_B-3" edge="1">
          <mxGeometry width="50" height="50" relative="1" as="geometry">
            <mxPoint x="70" y="418" as="sourcePoint" />
            <mxPoint x="120" y="368" as="targetPoint" />
            <Array as="points">
              <mxPoint x="120" y="556" />
              <mxPoint x="70" y="400" />
              <mxPoint x="192" y="236" />
            </Array>
          </mxGeometry>
        </mxCell>
        <mxCell id="UesM6g5A7Yxn22nxan8f-27" value="fastCGI&lt;br&gt;stdout" style="edgeLabel;html=1;align=center;verticalAlign=middle;resizable=0;points=[];fontSize=12;fontColor=#7EA6E0;" parent="UesM6g5A7Yxn22nxan8f-26" vertex="1" connectable="0">
          <mxGeometry x="0.1058" y="-3" relative="1" as="geometry">
            <mxPoint as="offset" />
          </mxGeometry>
        </mxCell>
        <mxCell id="UesM6g5A7Yxn22nxan8f-28" value="" style="ellipse;shape=umlControl;whiteSpace=wrap;html=1;fontSize=12;fillColor=#e1d5e7;opacity=50;strokeColor=#9673a6;" parent="1" vertex="1">
          <mxGeometry x="720" y="309" width="29" height="32" as="geometry" />
        </mxCell>
        <mxCell id="UesM6g5A7Yxn22nxan8f-29" value="&lt;font color=&quot;#e6d0de&quot;&gt;epoll&lt;/font&gt;" style="text;html=1;align=center;verticalAlign=middle;resizable=0;points=[];autosize=1;strokeColor=none;fillColor=none;fontSize=12;fontColor=#7EA6E0;" parent="1" vertex="1">
          <mxGeometry x="749" y="317" width="40" height="20" as="geometry" />
        </mxCell>
        <mxCell id="UesM6g5A7Yxn22nxan8f-30" value="" style="ellipse;shape=umlControl;whiteSpace=wrap;html=1;fontSize=12;fillColor=#f8cecc;opacity=50;strokeColor=#b85450;align=left;" parent="1" vertex="1">
          <mxGeometry x="721" y="346" width="29" height="32" as="geometry" />
        </mxCell>
        <mxCell id="UesM6g5A7Yxn22nxan8f-31" value="&lt;font color=&quot;#f19c99&quot;&gt;select/poll&lt;/font&gt;" style="text;html=1;align=center;verticalAlign=middle;resizable=0;points=[];autosize=1;strokeColor=none;fillColor=none;fontSize=12;fontColor=#EA6B66;" parent="1" vertex="1">
          <mxGeometry x="749" y="355" width="70" height="20" as="geometry" />
        </mxCell>
        <mxCell id="UesM6g5A7Yxn22nxan8f-35" value="" style="endArrow=classic;html=1;rounded=0;fontSize=12;fontColor=#7EA6E0;strokeColor=#7EA6E0;strokeWidth=1;opacity=50;curved=1;jumpStyle=sharp;jumpSize=5;entryX=0.25;entryY=1;entryDx=0;entryDy=0;exitX=0.25;exitY=0;exitDx=0;exitDy=0;" parent="1" source="3jl18JNsWPMRGAtueJ_B-1" target="3jl18JNsWPMRGAtueJ_B-2" edge="1">
          <mxGeometry width="50" height="50" relative="1" as="geometry">
            <mxPoint x="380" y="274" as="sourcePoint" />
            <mxPoint x="430" y="224" as="targetPoint" />
          </mxGeometry>
        </mxCell>
        <mxCell id="UesM6g5A7Yxn22nxan8f-39" value="http OK response" style="edgeLabel;html=1;align=right;verticalAlign=middle;resizable=0;points=[];fontSize=12;fontColor=#7EA6E0;" parent="UesM6g5A7Yxn22nxan8f-35" vertex="1" connectable="0">
          <mxGeometry x="0.1186" y="-1" relative="1" as="geometry">
            <mxPoint x="-2" as="offset" />
          </mxGeometry>
        </mxCell>
        <mxCell id="UesM6g5A7Yxn22nxan8f-36" value="" style="endArrow=none;startArrow=classicThin;html=1;rounded=0;fontSize=12;fontColor=#7EA6E0;strokeColor=#b85450;strokeWidth=1;opacity=50;curved=1;jumpStyle=sharp;jumpSize=5;entryX=0.75;entryY=1;entryDx=0;entryDy=0;exitX=0.75;exitY=0;exitDx=0;exitDy=0;startFill=1;endFill=0;fillColor=#f8cecc;" parent="1" source="3jl18JNsWPMRGAtueJ_B-1" target="3jl18JNsWPMRGAtueJ_B-2" edge="1">
          <mxGeometry width="50" height="50" relative="1" as="geometry">
            <mxPoint x="380" y="274" as="sourcePoint" />
            <mxPoint x="430" y="224" as="targetPoint" />
          </mxGeometry>
        </mxCell>
        <mxCell id="UesM6g5A7Yxn22nxan8f-38" value="&lt;font color=&quot;#f19c99&quot;&gt;http GET/POST request&lt;/font&gt;" style="edgeLabel;html=1;align=left;verticalAlign=middle;resizable=0;points=[];fontSize=12;fontColor=#7EA6E0;" parent="UesM6g5A7Yxn22nxan8f-36" vertex="1" connectable="0">
          <mxGeometry x="0.0508" relative="1" as="geometry">
            <mxPoint as="offset" />
          </mxGeometry>
        </mxCell>
        <mxCell id="UesM6g5A7Yxn22nxan8f-41" value="&lt;b&gt;php-fmp应用服务运行时&lt;br&gt;&lt;/b&gt;worker process&lt;br&gt;子进程建立连接之后接受请求监听读事件&lt;br&gt;读取fastCGI请求内容直到请求数据完全到达&lt;br&gt;执行 php_request_startup()，此阶段会调用每个扩展的PHP_RINIT_FUNCTION()&lt;br&gt;php_fopen_primary_script() 加载php文件；&lt;br&gt;然后把工作进程相关状态信息写入&lt;span style=&quot;color: rgb(51 , 51 , 51) ; background-color: rgb(245 , 245 , 245)&quot;&gt;fpm_scoreboard_proc_s中，方便主进程管理；&lt;/span&gt;&lt;br&gt;由 php_execute_script() 完成 PHP 脚本的编译、执行&lt;span style=&quot;color: rgb(103 , 171 , 159)&quot;&gt;zend_execute_scripts&lt;/span&gt;;&lt;br&gt;请求完成后执行 php_request_shutdown()，此阶段会调用每个扩展的：&lt;br&gt;PHP_RSHUTDOWN_FUNCTION()，然后继续等待下一个请求。&lt;span style=&quot;color: rgb(103 , 171 , 159)&quot;&gt;&lt;br&gt;&lt;br&gt;&lt;/span&gt;" style="text;html=1;align=center;verticalAlign=middle;resizable=0;points=[];autosize=1;strokeColor=none;fillColor=none;fontSize=12;" parent="1" vertex="1">
          <mxGeometry x="383" y="665" width="440" height="160" as="geometry" />
        </mxCell>
        <mxCell id="UesM6g5A7Yxn22nxan8f-42" value="" style="endArrow=none;dashed=1;html=1;dashPattern=1 3;strokeWidth=2;rounded=0;fontSize=12;fontColor=#7EA6E0;opacity=50;curved=1;jumpStyle=sharp;jumpSize=5;" parent="1" edge="1">
          <mxGeometry width="50" height="50" relative="1" as="geometry">
            <mxPoint x="10" y="97" as="sourcePoint" />
            <mxPoint x="820" y="97" as="targetPoint" />
          </mxGeometry>
        </mxCell>
        <mxCell id="UesM6g5A7Yxn22nxan8f-43" value="外网" style="text;html=1;align=center;verticalAlign=middle;resizable=0;points=[];autosize=1;strokeColor=none;fillColor=none;fontSize=12;fontColor=#67AB9F;" parent="1" vertex="1">
          <mxGeometry x="730" y="70" width="40" height="20" as="geometry" />
        </mxCell>
        <mxCell id="UesM6g5A7Yxn22nxan8f-45" value="内网" style="text;html=1;align=center;verticalAlign=middle;resizable=0;points=[];autosize=1;strokeColor=none;fillColor=none;fontSize=12;fontColor=#006633;" parent="1" vertex="1">
          <mxGeometry x="730" y="103" width="40" height="20" as="geometry" />
        </mxCell>
        <mxCell id="UesM6g5A7Yxn22nxan8f-47" value="&lt;b&gt;php-fmp应用服务运行时动态管理工作进程&lt;br&gt;&lt;/b&gt;主进程通过信号管道(signal)对工作池中的子进程进行控制管理(kill, fork)&lt;br&gt;主进程通过标准输出管道(stdout/stderr)获取子进程的输出信息&lt;br&gt;主进程和工作进程通过共享内存的方式(内部记分板结构scoreboard)，实现工作进程运行时的监控(工作进程状态), &lt;br&gt;主进程会定时轮训检查工作进程数目，根据进程池管理策略来处理是否扩缩容，检查工作进程处理请求是否超时" style="text;html=1;align=center;verticalAlign=middle;resizable=0;points=[];autosize=1;strokeColor=none;fillColor=none;fontSize=12;" parent="1" vertex="1">
          <mxGeometry x="100" y="847" width="610" height="80" as="geometry" />
        </mxCell>
        <mxCell id="UesM6g5A7Yxn22nxan8f-48" value="fpm php工作进程池管理交互" style="text;html=1;align=center;verticalAlign=middle;resizable=0;points=[];autosize=1;strokeColor=none;fillColor=none;fontSize=12;fontColor=#67AB9F;fontStyle=2" parent="1" vertex="1">
          <mxGeometry x="516.8199999999999" y="970" width="170" height="20" as="geometry" />
        </mxCell>
        <mxCell id="UesM6g5A7Yxn22nxan8f-49" value="weedge" style="text;html=1;align=center;verticalAlign=middle;resizable=0;points=[];autosize=1;strokeColor=none;fillColor=none;fontSize=12;fontColor=#67AB9F;fontStyle=2" parent="1" vertex="1">
          <mxGeometry x="690" y="970" width="60" height="20" as="geometry" />
        </mxCell>
        <mxCell id="UesM6g5A7Yxn22nxan8f-50" value="核心数据结构" style="text;html=1;align=center;verticalAlign=middle;resizable=0;points=[];autosize=1;strokeColor=none;fillColor=none;fontSize=12;fontColor=#5A687D;" parent="1" vertex="1">
          <mxGeometry x="340" y="1000" width="90" height="20" as="geometry" />
        </mxCell>
      </root>
    </mxGraphModel>
  </diagram>
</mxfile>
